<svg width="75" height="67" viewBox="0 0 75 67" fill="none" xmlns="http://www.w3.org/2000/svg">
<rect x="12" y="14" width="63" height="53" fill="#00FEFF"/>
<path d="M29.675 54.144C21.1069 54.144 12.5398 54.1461 3.97165 54.1419C2.0105 54.1409 0.392782 52.8793 0.0640042 51.1179C-0.35901 48.8472 1.36446 46.7846 3.76642 46.7184C4.86479 46.6884 5.96526 46.7112 7.06468 46.7112C23.1528 46.7112 39.242 46.7122 55.3301 46.7101C56.8547 46.7101 58.1059 47.2504 58.908 48.5616C60.3801 50.9699 58.6483 54.0012 55.7448 54.1295C55.2223 54.1523 54.6977 54.1368 54.1742 54.1368C46.0081 54.1368 37.841 54.1368 29.675 54.1368C29.675 54.1399 29.675 54.1419 29.675 54.144ZM45.7422 48.2263C44.4909 48.2221 43.4753 49.226 43.4816 50.4607C43.4878 51.6674 44.4972 52.6641 45.7202 52.6713C46.9557 52.6785 47.9976 51.6478 47.986 50.4296C47.9756 49.2209 46.9662 48.2304 45.7422 48.2263ZM53.4967 50.4576C53.5041 49.2343 52.5251 48.2428 51.2948 48.2273C50.0425 48.2118 49.0122 49.2074 49.009 50.4359C49.0059 51.6695 50.0257 52.6775 51.2707 52.6723C52.4957 52.6661 53.4894 51.6767 53.4967 50.4576Z" fill="#001E42"/>
<path d="M21.8556 38.5362C20.5247 35.9975 20.8713 31.6518 24.0879 28.9289C27.2218 26.2774 31.9807 26.2712 35.0957 28.9382C38.2945 31.6767 39.0065 36.2821 36.7637 39.7729C34.3732 43.4924 29.9494 44.3183 27.0008 43.2264C27.1087 43.1023 27.1966 42.9874 27.2992 42.886C28.5924 41.6047 29.8886 40.3266 31.1807 39.0443C31.944 38.2867 31.9451 37.6223 31.1786 36.8606C30.2562 35.9437 29.3316 35.0298 28.3997 34.1232C27.7275 33.4692 27.0165 33.4702 26.3401 34.1336C24.9653 35.48 23.5989 36.8358 22.2294 38.1863C22.1205 38.295 22.0042 38.3975 21.8556 38.5362Z" fill="#001E42"/>
<path d="M47.2123 8.7002C44.0669 11.7988 40.9948 14.8249 37.8452 17.9266C38.8661 18.2733 39.7991 18.5869 40.7289 18.9077C41.6796 19.2358 42.3298 19.8681 42.6335 20.8223C42.8471 21.4929 42.7801 22.1336 42.2597 22.6489C41.734 23.1695 41.0535 23.2389 40.4053 22.9956C38.3677 22.2308 36.3322 21.4567 34.3334 20.6008C33.368 20.1879 32.8099 19.4086 32.7921 18.2816C32.7586 16.1092 32.6801 13.9369 32.589 11.7657C32.5618 11.1116 32.7618 10.5962 33.2246 10.1408C35.3763 8.0244 37.5165 5.89555 39.6682 3.77913C40.4357 3.02466 41.4712 3.10953 42.4021 4.00991C43.4994 5.07071 44.5737 6.15635 45.6626 7.22543C46.1474 7.7015 46.6437 8.15997 47.2123 8.7002Z" fill="#001E42"/>
<path d="M26.9956 7.05052C27.1327 7.96643 27.2552 8.7892 27.3861 9.66889C27.2311 9.67613 27.0134 9.69373 26.7956 9.69373C21.2995 9.69476 15.8025 9.69476 10.3064 9.69476C8.30024 9.69476 7.36102 10.6262 7.36102 12.6091C7.36102 23.4748 7.36207 34.3395 7.36312 45.2052C7.36312 45.4277 7.36312 45.6492 7.36312 45.9141C6.45112 45.9141 5.57473 45.9141 4.63552 45.9141C4.63552 45.6937 4.63552 45.4919 4.63552 45.2901C4.63552 34.3384 4.63447 23.3868 4.63656 12.4352C4.63761 9.24664 6.87414 7.01947 10.0897 7.01844C15.5857 7.01533 21.0828 7.02465 26.5788 7.03086C26.7495 7.02982 26.9202 7.04638 26.9956 7.05052Z" fill="#001E42"/>
<path d="M44.1161 19.572C43.5517 18.4626 42.5863 17.6357 41.1707 17.1141C42.0198 16.3048 42.8062 15.5762 43.5684 14.8248C46.2845 12.1475 48.986 9.45356 51.7084 6.78241C53.1805 5.33869 54.9354 4.87711 56.8924 5.60984C58.8253 6.33326 59.8451 7.80389 59.9875 9.82924C60.064 10.9087 59.7917 11.9488 59.0839 12.784C58.3038 13.704 57.4212 14.5382 56.4757 15.5203C55.9699 14.9697 55.5438 14.4409 55.0516 13.9824C53.859 12.8709 52.1565 12.5873 50.8435 13.2838C50.0435 13.7081 49.4456 14.3529 49.009 15.1467C48.9106 15.3257 48.7451 15.5027 48.5661 15.599C47.6981 16.0657 47.028 16.7156 46.5631 17.5777C46.4919 17.7102 46.4144 17.8561 46.2992 17.9441C45.5914 18.4843 44.8741 19.009 44.1161 19.572Z" fill="#001E42"/>
<path d="M45.7454 22.0497C45.36 20.548 46.6333 19.2657 48.2185 19.6507C48.0332 18.9231 48.1201 18.3022 48.6719 17.7423C49.2321 17.1751 49.8593 17.0851 50.6215 17.2486C50.6215 17.1193 50.6393 17.0354 50.6184 16.962C50.3608 16.0222 50.9231 15.3982 51.6215 14.9366C52.1879 14.562 53.0497 14.6406 53.6622 15.2067C54.8349 16.2882 55.9741 17.408 57.0767 18.5599C57.6578 19.1674 57.7667 20.0833 57.3824 20.6215C56.7961 21.4442 56.2547 21.8427 55.281 21.616C55.2192 21.6015 55.1511 21.614 55.0852 21.614C55.1511 23.4644 54.637 23.9767 52.6507 24.0647C52.7136 25.8717 51.8969 26.6748 50.2006 26.4315C50.2006 26.5309 50.1828 26.6282 50.2037 26.7172C50.4194 27.6466 49.9242 28.2572 49.2132 28.7043C48.5054 29.1493 47.7369 28.9878 47.1725 28.4735C45.9663 27.3785 44.8061 26.2287 43.6942 25.0396C43.1706 24.4797 42.9968 23.7138 43.446 23.0225C43.9256 22.2846 44.5433 21.7702 45.5464 22.0476C45.5935 22.061 45.649 22.0497 45.7454 22.0497Z" fill="#001E42"/>
<path d="M54.7711 26.5215C54.7711 32.8729 54.7711 39.366 54.7711 45.9078C53.8894 45.9078 53.0162 45.9078 52.0979 45.9078C52.0885 45.7091 52.0728 45.5249 52.0728 45.3396C52.0717 40.0812 52.0759 34.8227 52.0654 29.5642C52.0644 28.9867 52.3021 28.6576 52.7848 28.314C53.5209 27.7914 54.1376 27.1073 54.7711 26.5215Z" fill="#001E42"/>
<path d="M43.8564 27.8567C42.3288 29.3614 40.8273 30.8403 39.2923 32.3524C38.1793 29.1069 35.9616 26.8869 32.5817 25.7113C32.9439 25.3439 33.2633 25.0158 33.5868 24.6929C34.0528 24.2282 34.5355 23.778 34.9847 23.2978C35.2192 23.0474 35.4255 22.9967 35.7553 23.1312C36.9615 23.6259 38.1709 24.1196 39.4033 24.547C39.9834 24.7478 40.62 24.7881 41.2273 24.9175C41.3739 24.9485 41.5927 25.0148 41.6325 25.1193C42.0105 26.1128 42.801 26.7762 43.5214 27.4986C43.6418 27.6207 43.7549 27.748 43.8564 27.8567Z" fill="#001E42"/>
<path d="M29.3462 7.7656C29.5263 7.42718 29.6373 7.02252 29.8969 6.76172C32.011 4.63391 34.1543 2.53508 36.2851 0.423829C36.6338 0.079198 37.0515 -0.0346439 37.5269 0.00882299C38.5802 0.105071 39.5509 1.05824 39.5509 2.10559C39.5509 2.48126 39.3949 2.95423 39.1373 3.21606C37.0201 5.36457 34.8632 7.47375 32.7177 9.59432C32.3418 9.96585 31.8864 10.0735 31.3712 9.97724C30.298 9.77646 29.4624 8.83778 29.3462 7.7656Z" fill="#001E42"/>
<path d="M21.2797 21.2228L12.4781 12.3131L12.4686 24.9278L16.0957 23.4024L18.2966 27.956L20.3666 26.9791L18.2086 22.5144L21.2797 21.2228Z" fill="#001E42"/>
</svg>
