<svg width="73" height="66" viewBox="0 0 73 66" fill="none" xmlns="http://www.w3.org/2000/svg">
<rect x="10" y="13" width="63" height="53" fill="#00FEFF"/>
<path d="M25.8623 51.8557L24.4257 51.214C21.979 50.1225 19.9739 48.2207 18.7429 45.828L18.2429 44.8541C18.1643 44.7007 18.0906 44.5423 18.017 44.3838C16.6033 44.3838 15.1871 44.3812 13.7734 44.3812C10.9865 44.3812 8.20224 44.3914 5.41542 44.3787C3.98139 44.371 3.81642 44.1742 3.8088 42.6123C3.80119 40.9559 3.91794 40.7897 5.33166 40.7846C9.24794 40.7769 13.1642 40.7769 17.0805 40.7795C16.9409 39.3838 17.0272 37.9037 17.3698 36.4364C16.1693 36.4364 14.9713 36.4339 13.7708 36.4339C10.9434 36.4339 8.11341 36.3904 5.28597 36.4518C3.83165 36.4824 3.81642 35.6287 3.78596 34.5499C3.75297 33.3996 4.05246 32.8219 5.32912 32.8321C9.81647 32.8628 14.3038 32.85 18.7912 32.8475C19.4891 31.6486 20.4028 30.5162 21.5653 29.5141C22.012 29.1307 22.4815 28.7779 22.9714 28.461C22.8191 28.4916 22.6465 28.5095 22.4409 28.5044C19.5704 28.4482 16.6972 28.4865 13.8267 28.4865C10.9561 28.4865 8.08295 28.4456 5.21237 28.507C3.92302 28.5351 3.77835 27.8449 3.79611 26.8147C3.81388 25.8101 3.78596 24.964 5.20222 24.9743C10.9459 25.0177 16.6871 25.0152 22.4308 24.9743C23.8166 24.964 23.8623 25.7641 23.8623 26.7969C23.8623 27.326 23.8267 27.7708 23.611 28.075C24.8572 27.3669 26.2151 26.871 27.6313 26.6077C27.6288 22.4998 27.6237 18.3894 27.6186 14.2815C26.8471 13.4814 26.1009 10.9328 25.7735 9.69563C25.6567 9.25595 25.7024 8.78816 25.908 8.38172C26.2963 7.6174 26.9689 6.36229 27.4537 5.86383C27.507 5.81014 27.5577 5.75646 27.611 5.70278C27.611 5.69767 27.611 5.69256 27.611 5.68744C27.611 5.13019 27.4105 4.50646 27.1161 4.02845C26.4968 3.01873 25.6922 2.12149 25.0831 1.10667C24.6059 0.314233 24.0196 -0.00274024 23.1186 0.0151534C21.1313 0.053497 19.1389 -0.0283026 17.1541 0.0483845L10.6236 0.0458283C8.76316 -0.0180777 6.89766 0.102066 5.03978 0.00748471C3.74281 -0.0589775 2.85702 0.306564 2.28087 1.531C1.923 2.2902 1.31894 2.92415 0.902689 3.66035C0.544819 4.29174 0.0422763 4.98448 0.0397382 5.6491C-0.0084855 22.0525 -0.00340932 38.4533 0.00674305 54.8567C0.00674305 56.4441 0.572737 56.9911 2.17935 56.9937C9.92307 57.0039 17.6642 57.0014 25.408 56.9886C27.0933 56.986 27.6288 56.4646 27.6288 54.7723C27.6288 53.9671 27.6288 53.1644 27.6288 52.3592C27.0222 52.2365 26.4334 52.0704 25.8623 51.8557ZM3.81388 9.58826C3.82403 8.03407 4.25551 7.56372 5.75044 7.55861C11.121 7.53816 16.4916 7.53816 21.8623 7.5535C23.3572 7.55861 23.8267 8.04685 23.8369 9.56526C23.8597 12.2467 23.8572 14.9282 23.8369 17.6123C23.8242 19.1972 23.3673 19.6317 21.7683 19.6394C19.1033 19.6496 16.4409 19.6419 13.7759 19.6419C13.7759 19.6394 13.7759 19.6394 13.7759 19.6368C11.1109 19.6368 8.44844 19.6471 5.78344 19.6343C4.29104 19.6266 3.82403 19.1588 3.81388 17.6404C3.79611 14.9538 3.79865 12.2723 3.81388 9.58826ZM13.6921 54.5806C11.6261 54.5193 10.0398 52.7938 10.1363 50.7105C10.2276 48.7089 11.9155 47.1803 13.9586 47.2519C15.9942 47.3209 17.5576 48.9594 17.517 50.9789C17.4739 53.0417 15.7734 54.6445 13.6921 54.5806Z" fill="#001E42"/>
<path d="M21.8476 42.9724C20.4415 40.2372 20.807 35.5542 24.208 32.6196C27.5228 29.7618 32.5533 29.7566 35.8477 32.6299C39.231 35.5798 39.9848 40.5414 37.6117 44.3042C35.0838 48.3124 30.4061 49.2019 27.2893 48.0261C27.4035 47.8932 27.4974 47.7679 27.604 47.658C28.972 46.2776 30.3426 44.8998 31.7081 43.5194C32.5152 42.704 32.5152 41.9857 31.7056 41.1651C30.7309 40.1784 29.7512 39.1917 28.7665 38.2152C28.0558 37.5097 27.3045 37.5123 26.5888 38.2255C25.1344 39.6774 23.6903 41.137 22.241 42.5941C22.1268 42.7117 22.005 42.8216 21.8476 42.9724Z" fill="#001E42"/>
<path d="M48.66 10.8231C45.3326 14.1615 42.0864 17.4233 38.7564 20.7643C39.8376 21.1375 40.8224 21.4749 41.8072 21.8226C42.8123 22.1753 43.5001 22.8578 43.8224 23.8854C44.0483 24.6089 43.9773 25.299 43.4265 25.8537C42.8707 26.4136 42.1498 26.4902 41.4646 26.227C39.3097 25.4038 37.1574 24.568 35.0432 23.6477C34.0229 23.2029 33.4315 22.3619 33.4137 21.1503C33.3782 18.8088 33.2944 16.4698 33.198 14.1283C33.1701 13.4228 33.3807 12.8681 33.8706 12.3773C36.1473 10.0971 38.4087 7.80159 40.6854 5.52143C41.4976 4.70855 42.5915 4.80057 43.5762 5.76938C44.7362 6.91202 45.8732 8.08278 47.0255 9.23309C47.5331 9.74689 48.0585 10.2402 48.66 10.8231Z" fill="#001E42"/>
<path d="M45.386 22.5382C44.7895 21.3419 43.7692 20.4523 42.2717 19.8899C43.1702 19.0183 44.0002 18.2335 44.8073 17.4232C47.6804 14.5372 50.5358 11.6359 53.414 8.75753C54.9698 7.20078 56.8277 6.70487 58.8962 7.49474C60.9394 8.2744 62.0181 9.85927 62.1704 12.0397C62.2516 13.2028 61.9622 14.325 61.2135 15.2223C60.3886 16.2141 59.4546 17.1113 58.4546 18.1722C57.9191 17.5791 57.4698 17.0091 56.9495 16.5157C55.6881 15.3194 53.8886 15.0126 52.5002 15.7616C51.6551 16.2192 51.0231 16.9145 50.5611 17.7683C50.4571 17.96 50.2819 18.1517 50.0941 18.2565C49.1753 18.7601 48.4672 19.4605 47.9748 20.3884C47.8987 20.5316 47.8175 20.6875 47.6956 20.7821C46.9469 21.3649 46.188 21.9324 45.386 22.5382Z" fill="#001E42"/>
<path d="M47.1093 25.2071C46.7006 23.589 48.0484 22.2086 49.726 22.6227C49.5306 21.8379 49.622 21.1708 50.2057 20.5649C50.7971 19.954 51.4621 19.8568 52.2667 20.0332C52.2667 19.8926 52.2844 19.8032 52.2641 19.7239C51.9926 18.7117 52.5865 18.0394 53.3251 17.5409C53.924 17.137 54.8352 17.2214 55.4824 17.8323C56.7236 18.998 57.9266 20.2045 59.0916 21.4468C59.7058 22.1012 59.82 23.0879 59.4139 23.6682C58.7946 24.5552 58.221 24.9847 57.1906 24.7393C57.1246 24.7239 57.0535 24.7367 56.9824 24.7367C57.051 26.7306 56.5078 27.2827 54.4088 27.3773C54.4748 29.3252 53.6119 30.1892 51.8174 29.9284C51.8174 30.0358 51.7997 30.1406 51.82 30.2352C52.0484 31.2372 51.523 31.8942 50.7717 32.3747C50.023 32.8553 49.2108 32.6789 48.6144 32.1268C47.3402 30.9458 46.1118 29.7086 44.9367 28.4279C44.3834 27.8246 44.1981 26.999 44.6752 26.2551C45.1829 25.4601 45.8351 24.9054 46.8961 25.2045C46.9494 25.2198 47.0078 25.2071 47.1093 25.2071Z" fill="#001E42"/>
<path d="M45.1118 31.4644C43.4976 33.085 41.9088 34.6801 40.2844 36.3084C39.1067 32.8115 36.7615 30.4189 33.1879 29.1535C33.5711 28.7573 33.9087 28.4046 34.2513 28.0569C34.7437 27.5559 35.2539 27.0702 35.731 26.5538C35.9798 26.2829 36.198 26.2292 36.5458 26.3749C37.8224 26.9066 39.0991 27.4409 40.4037 27.901C41.0179 28.1183 41.6905 28.1617 42.3326 28.2998C42.4874 28.333 42.7184 28.4046 42.7615 28.517C43.16 29.5881 43.9976 30.3013 44.759 31.0809C44.8834 31.2087 45.0052 31.3468 45.1118 31.4644Z" fill="#001E42"/>
<path d="M29.7665 9.81587C29.9568 9.45033 30.0736 9.01577 30.3502 8.73458C32.5863 6.44164 34.8528 4.17937 37.1041 1.90432C37.4721 1.53366 37.9163 1.41096 38.4188 1.45697C39.5331 1.56178 40.5585 2.58683 40.5585 3.71669C40.5585 4.12057 40.3935 4.63182 40.1219 4.91301C37.8833 7.22896 35.6016 9.50145 33.3325 11.7867C32.934 12.1881 32.4518 12.3031 31.9086 12.2008C30.7741 11.9836 29.8908 10.9713 29.7665 9.81587Z" fill="#001E42"/>
</svg>
