<svg width="75" height="67" viewBox="0 0 75 67" fill="none" xmlns="http://www.w3.org/2000/svg">
<rect x="12" y="14" width="63" height="53" fill="#00FEFF"/>
<path d="M55.7813 10.6216H55.7449V10.9818H55.7813V10.6216Z" fill="#001E42"/>
<path d="M40.7552 29.451V28.6986L39.5246 26.8096L38.4923 27.466L39.5286 29.0588V29.451H29.1374V25.493C29.4248 25.1768 29.5908 24.7766 29.5908 24.3444C29.5908 23.3959 28.8095 22.6235 27.8502 22.6235C27.8502 22.6235 27.8502 22.6235 27.8461 22.6235C27.3806 22.6235 26.9434 22.8036 26.6155 23.1278C26.2836 23.452 26.1014 23.8842 26.1014 24.3484C26.1014 24.7886 26.2755 25.1888 26.5548 25.497V27.1338C27.0446 27.9662 27.6397 28.7426 28.3481 29.443C29.3317 30.4155 30.4692 31.1838 31.7039 31.7321H40.9657C42.1922 31.1878 43.3216 30.4235 44.3012 29.459H40.7552V29.451ZM28.2185 24.7126C28.17 24.7606 28.1133 24.7966 28.0526 24.8246H27.6356C27.4454 24.7446 27.3118 24.5605 27.3118 24.3444C27.3118 24.2043 27.3685 24.0723 27.4656 23.9722C27.5668 23.8722 27.7004 23.8201 27.838 23.8201C28.1295 23.8201 28.3683 24.0563 28.3683 24.3444C28.3764 24.4845 28.3197 24.6165 28.2185 24.7126Z" fill="#001E42"/>
<path d="M43.4917 39.8521C42.6497 40.1722 41.7875 40.4363 40.9091 40.6404V42.6695C40.6257 42.9776 40.4597 43.3698 40.4557 43.794V43.8501C40.4719 44.2983 40.6621 44.7145 40.9941 45.0227C41.3098 45.3148 41.7227 45.4749 42.1558 45.4749C42.168 45.4749 42.1842 45.4749 42.1963 45.4749H42.2085C42.6456 45.4829 43.099 45.3108 43.431 44.9946C43.7588 44.6785 43.945 44.2543 43.9491 43.802V43.778C43.937 43.3538 43.7629 42.9696 43.4957 42.6775V39.8521H43.4917ZM42.5768 44.1342C42.4797 44.2263 42.3542 44.2823 42.2247 44.2743H42.1963H42.168C42.0384 44.2783 41.917 44.2343 41.8199 44.1462C41.7268 44.0582 41.6701 43.9381 41.666 43.802C41.666 43.67 41.7187 43.5459 41.8158 43.4539C41.9049 43.3658 42.0223 43.3178 42.1558 43.3138H42.1639H42.2004C42.4918 43.3058 42.7104 43.5219 42.7266 43.798C42.7266 43.9261 42.6699 44.0462 42.5768 44.1342Z" fill="#001E42"/>
<path d="M35.2945 41.1444C34.4201 41.1004 33.5579 40.9963 32.7118 40.8442V42.6531C32.4204 42.9613 32.2504 43.3615 32.2463 43.7937V43.8498C32.2625 44.298 32.4528 44.7142 32.7847 45.0223C32.9588 45.1824 33.1652 45.3025 33.3838 45.3785V49.2965C33.3838 49.4566 33.2543 49.5886 33.0802 49.5926H0V50.7932H33.1004C33.9343 50.7852 34.6022 50.1089 34.5982 49.2925V45.3745C35.2459 45.1424 35.7235 44.5301 35.7357 43.8057V43.7817C35.7235 43.3615 35.5576 42.9893 35.2945 42.6972V41.1444ZM34.0153 44.274H33.987H33.9586C33.9546 44.274 33.9465 44.274 33.9424 44.274C33.6834 44.274 33.4648 44.0699 33.4567 43.7977C33.4567 43.6657 33.5093 43.5416 33.6064 43.4495C33.6955 43.3615 33.8129 43.3135 33.9465 43.3095H33.9546H33.991C34.2906 43.3015 34.501 43.5176 34.5172 43.7937C34.5091 44.0659 34.2906 44.29 34.0153 44.274Z" fill="#001E42"/>
<path d="M1.28014 43.566C5.83008 43.57 10.376 43.57 14.9259 43.562C15.9177 43.562 16.2294 43.2578 16.2294 42.2853C16.2294 39.7481 16.2294 37.2108 16.2294 34.6735H19.9211V36.5825C19.9211 37.623 20.7753 38.4674 21.8278 38.4674H24.5156V42.6655C24.2323 42.9737 24.0663 43.3659 24.0622 43.7901V43.8461C24.0784 44.2943 24.2687 44.7106 24.6006 45.0187C24.9164 45.3109 25.3293 45.4709 25.7624 45.4709C25.7745 45.4709 25.7907 45.4709 25.8029 45.4709H25.815C25.8231 45.4709 25.8312 45.4709 25.8393 45.4709C26.2886 45.4709 26.7137 45.3028 27.0335 44.9907C27.3614 44.6745 27.5476 44.2503 27.5516 43.7981V43.7741C27.5395 43.3499 27.3654 42.9657 27.0982 42.6735V38.9356C25.6733 38.1953 24.3375 37.2788 23.115 36.2023H22.2204V35.3619C21.3622 34.5054 20.5972 33.585 19.9211 32.6125V33.4649H16.2334C16.2334 26.9736 16.2294 20.4784 16.2213 13.9871C16.2213 13.6669 16.1039 13.3068 15.9298 13.0306C15.5655 12.4463 15.0919 11.9301 14.7357 11.3458C14.4564 10.8895 14.1123 10.7055 13.582 10.7175C12.74 10.7335 3.5632 10.7415 2.9641 10.7095C2.20308 10.6734 1.68089 10.8815 1.3449 11.5899C1.13441 12.0261 0.778185 12.3943 0.535305 12.8185C0.32481 13.1827 0.029306 13.5829 0.029306 13.9671C-0.00307799 23.4198 0.000970004 32.8766 0.005018 42.3334C0.005018 43.2498 0.336954 43.566 1.28014 43.566ZM25.4264 43.4539C25.5155 43.3659 25.6329 43.3178 25.7665 43.3138H25.7745H25.811C26.0943 43.3058 26.321 43.522 26.3372 43.7981C26.3332 43.9262 26.2805 44.0462 26.1834 44.1343C26.0862 44.2263 25.9688 44.2823 25.8312 44.2743H25.8029H25.7745C25.6491 44.2783 25.5195 44.2343 25.4264 44.1463C25.3333 44.0582 25.2766 43.9382 25.2726 43.8021C25.2766 43.67 25.3293 43.546 25.4264 43.4539ZM8.04433 42.1773C6.82994 42.1413 5.8989 41.1488 5.95557 39.9482C6.00819 38.7956 6.99995 37.9111 8.2022 37.9552C9.39636 37.9952 10.3153 38.9396 10.291 40.1042C10.2667 41.2888 9.26683 42.2133 8.04433 42.1773ZM13.0719 36.2903C11.4123 36.2983 9.74854 36.2943 8.08886 36.2943C6.45347 36.2943 4.81808 36.2983 3.17864 36.2943C2.33666 36.2903 2.23951 36.1783 2.23546 35.2738C2.23141 34.3173 2.30023 34.2213 3.13007 34.2213C6.45347 34.2133 9.77283 34.2133 13.0962 34.2213C13.9261 34.2213 14.007 34.3293 14.007 35.2658C14.007 36.1743 13.9139 36.2863 13.0719 36.2903ZM2.23951 16.2322C2.24356 15.3358 2.49858 15.0636 3.377 15.0596C6.53038 15.0476 9.68782 15.0476 12.8412 15.0556C13.7196 15.0596 13.9949 15.3398 14.003 16.2162C14.0151 17.761 14.0151 19.3098 14.003 20.8586C13.9949 21.771 13.7277 22.0231 12.7886 22.0271C11.222 22.0311 9.65948 22.0271 8.09291 22.0271V22.0231C6.52634 22.0231 4.96381 22.0271 3.39724 22.0191C2.51882 22.0151 2.24761 21.747 2.23951 20.8706C2.23141 19.3258 2.23141 17.777 2.23951 16.2322ZM3.05316 25.1047C6.42514 25.1287 9.80116 25.1287 13.1731 25.1047C13.9868 25.1007 14.0151 25.5609 14.0151 26.1532C14.0151 26.7375 13.9382 27.1497 13.1812 27.1377C11.4932 27.1057 9.80926 27.1257 8.12124 27.1257C6.43323 27.1257 4.74522 27.1017 3.06125 27.1377C2.30428 27.1537 2.21927 26.7575 2.22737 26.1612C2.23951 25.5849 2.22332 25.1007 3.05316 25.1047ZM3.13007 29.635C6.45347 29.659 9.77687 29.639 13.0962 29.643C13.918 29.643 14.007 29.763 14.007 30.6875C14.007 31.596 13.922 31.704 13.0719 31.708C11.4123 31.716 9.74854 31.712 8.08886 31.712C6.42918 31.712 4.76546 31.688 3.10578 31.724C2.25165 31.744 2.24356 31.2478 2.22332 30.6275C2.20308 29.9631 2.38119 29.631 3.13007 29.635Z" fill="#001E42"/>
<path d="M42.4027 14.4673C40.4596 14.4673 38.5166 14.4633 36.5736 14.4713C35.9178 14.4753 35.7437 14.6514 35.7356 15.2957C35.7275 15.9401 35.7316 16.5884 35.7356 17.2327C35.7356 18.1251 35.8571 18.2452 36.776 18.2452C36.9824 18.2452 37.1889 18.2452 37.3913 18.2452C38.0956 18.2452 38.8 18.2492 39.5043 18.2492H39.5286V21.7029C39.2979 21.787 39.0874 21.9151 38.9093 22.0911C38.5773 22.4153 38.3952 22.8475 38.3952 23.3118C38.3952 24.1602 39.0266 24.8645 39.8443 25.0046L40.8766 26.5854L41.9048 25.9291L41.1235 24.7325C41.2085 24.6724 41.2935 24.6084 41.3704 24.5324C41.7024 24.2082 41.8845 23.776 41.8845 23.3118C41.8845 22.5754 41.4109 21.9511 40.7551 21.707V18.2492C41.2045 18.2492 41.6497 18.2492 42.0991 18.2412C42.18 18.2412 42.2529 18.2452 42.3177 18.2532H46.6085C46.7826 18.2532 46.9526 18.2532 47.1267 18.2532C46.7016 16.8805 46.0094 15.5959 45.0743 14.4713C44.1838 14.4713 43.2932 14.4673 42.4027 14.4673ZM37.9256 17.1447C37.5127 17.1286 37.1646 16.7645 37.1646 16.3523C37.1646 15.94 37.5208 15.5839 37.9377 15.5719C38.3911 15.5599 38.7473 15.912 38.7433 16.3643C38.7392 16.8125 38.3749 17.1647 37.9256 17.1447ZM40.5163 23.6839C40.4151 23.784 40.2815 23.836 40.1439 23.836C39.8524 23.836 39.6136 23.5999 39.6136 23.3158C39.6136 23.1757 39.6703 23.0436 39.7674 22.9436C39.8686 22.8435 40.0022 22.7915 40.1398 22.7915C40.4313 22.7915 40.6701 23.0276 40.6701 23.3158C40.6742 23.4558 40.6175 23.5879 40.5163 23.6839ZM40.7632 17.1407C40.3018 17.1487 39.9536 16.7965 39.9658 16.3322C39.9779 15.896 40.318 15.5719 40.7592 15.5759C41.2004 15.5799 41.5364 15.92 41.5364 16.3563C41.5364 16.7925 41.1964 17.1367 40.7632 17.1407ZM43.5685 17.1447C43.1313 17.1567 42.7346 16.7845 42.7346 16.3603C42.7306 15.9521 43.0908 15.5919 43.5118 15.5759C43.9652 15.5599 44.3376 15.916 44.3376 16.3603C44.3336 16.7805 43.9895 17.1326 43.5685 17.1447Z" fill="#001E42"/>
<path d="M36.8286 11.8178C36.8286 12.7182 37.0755 12.9664 37.9985 12.9664C39.8525 12.9664 41.7064 12.9664 43.5645 12.9664C42.7549 12.298 41.8603 11.7497 40.913 11.3335C40.5285 11.3335 40.148 11.3335 39.7634 11.3335C39.0348 11.3335 38.6178 11.1014 38.4519 10.5772C37.9216 10.4771 37.3791 10.4171 36.8327 10.3931C36.8286 10.8693 36.8286 11.3415 36.8286 11.8178Z" fill="#001E42"/>
<path d="M38.6381 2.04103C38.8486 1.7929 39.1805 1.66884 39.6703 1.66484C41.5769 1.64883 43.4795 1.66084 45.3861 1.66084V1.65683C47.2158 1.65683 49.0455 1.65283 50.8792 1.65683C52.041 1.66084 52.4417 2.04503 52.4417 3.1736C52.4458 5.39071 52.4458 7.60382 52.4417 9.82094C52.4417 9.89698 52.4336 9.96501 52.4296 10.037C52.972 10.7814 53.4659 11.5618 53.895 12.3742C53.9354 12.2101 53.9516 12.006 53.9516 11.7499C53.9516 8.24014 53.9516 4.73438 53.9516 1.22462C53.9516 0.216109 53.733 0 52.6927 0C50.2639 0 47.8351 0 45.4063 0C42.9573 0 40.5123 0 38.0632 0C37.0513 0 36.8286 0.212107 36.8286 1.1846C36.8286 1.42872 36.8286 1.67284 36.8286 1.92097C37.4358 1.93297 38.039 1.97299 38.6381 2.04103Z" fill="#001E42"/>
<path d="M48.9484 9.06438C41.9899 2.18492 30.6717 2.18492 23.7132 9.06438C16.7547 15.9438 16.7587 27.1335 23.7172 34.0129C29.8945 40.12 39.5044 40.8003 46.4548 36.062L62.9221 54.023C64.3955 55.4797 66.9943 55.2716 68.7269 53.5628C70.4594 51.8499 70.6699 49.2806 69.1924 47.8239L50.9198 31.6918C55.8259 24.8123 55.1701 15.2155 48.9484 9.06438ZM45.7505 30.8473C40.5569 35.9819 32.1087 35.9819 26.9152 30.8473C21.7216 25.7127 21.7216 17.3605 26.9152 12.226C32.1087 7.09139 40.5569 7.09139 45.7505 12.226C50.944 17.3646 50.944 25.7167 45.7505 30.8473Z" fill="#001E42"/>
</svg>
