<svg width="76" height="73" viewBox="0 0 76 73" fill="none" xmlns="http://www.w3.org/2000/svg">
<rect x="13" y="20" width="63" height="53" fill="#00FEFF"/>
<path d="M23.5914 60.0224C18.5894 60.015 13.5874 60.0168 8.58535 60.0168C6.08342 60.0168 3.58334 60.0131 1.08141 60.0224C0.238187 60.0261 0.0125885 60.2572 0.00519185 61.0949C-0.00405401 61.9363 0.00149351 62.7777 0.00334268 63.619C0.00519185 64.7785 0.160522 64.9338 1.32735 64.9393H7.1393C7.49249 64.9375 7.84383 64.9338 8.19702 64.9282C8.28209 64.9264 8.35975 64.9301 8.43002 64.9393H18.6985C20.3775 64.9393 22.0584 64.9393 23.7375 64.9375C24.6047 64.9356 24.8118 64.7341 24.8229 63.8835C24.8359 63.0181 24.8303 62.1526 24.8285 61.2872C24.8266 60.1777 24.6898 60.0242 23.5914 60.0224ZM2.81963 63.5044C2.28892 63.484 1.83957 63.0107 1.83772 62.4707C1.83587 61.9344 2.29447 61.4684 2.83442 61.4555C3.42061 61.4426 3.87736 61.8975 3.87181 62.4855C3.86626 63.0717 3.39657 63.5266 2.81963 63.5044ZM6.47544 63.5007C5.88001 63.5118 5.43251 63.0532 5.44915 62.4448C5.46395 61.8753 5.90405 61.4518 6.47359 61.4592C7.03944 61.4666 7.474 61.9085 7.47215 62.4762C7.46845 63.0421 7.03389 63.4896 6.47544 63.5007ZM10.0869 63.5025C9.52288 63.5173 9.01621 63.0347 9.01066 62.4799C9.00696 61.9492 9.46925 61.4777 10.0129 61.4574C10.5935 61.4352 11.0762 61.8993 11.0743 62.4781C11.0725 63.0273 10.6287 63.4877 10.0869 63.5025ZM23.0496 62.2285C23.0348 62.3708 23.0496 62.5169 23.0477 62.6593C23.0403 63.6024 22.9442 63.7059 22.027 63.7115C21.1153 63.717 20.2037 63.7133 19.2921 63.7133C18.3083 63.7115 17.3245 63.6985 16.3408 63.717C15.762 63.7281 15.4939 63.4711 15.5013 62.9034C15.5031 62.8313 15.4994 62.7592 15.4994 62.687C15.4772 61.2706 15.5327 61.2114 16.9214 61.2133C18.6485 61.217 20.3757 61.2391 22.1028 61.2225C22.8203 61.2188 23.1198 61.5276 23.0496 62.2285Z" fill="#001E42"/>
<path d="M62.9973 61.2872C62.9954 60.1777 62.8586 60.0242 61.7602 60.0224C56.7582 60.015 51.7562 60.0168 46.7542 60.0168C44.2522 60.0168 41.7522 60.0131 39.2502 60.0224C38.407 60.0261 38.1814 60.2572 38.174 61.0949C38.1648 61.9363 38.1703 62.7777 38.1722 63.619C38.174 64.7785 38.3293 64.9338 39.4962 64.9393H45.3081C45.6613 64.9375 46.0127 64.9338 46.3658 64.9282C46.4509 64.9264 46.5286 64.9301 46.5988 64.9393H56.8673C58.5463 64.9393 60.2272 64.9393 61.9063 64.9375C62.7735 64.9356 62.9807 64.7341 62.9917 63.8835C63.0047 63.0199 62.9991 62.1526 62.9973 61.2872ZM40.9866 63.5044C40.4559 63.484 40.0065 63.0107 40.0047 62.4707C40.0028 61.9344 40.4614 61.4684 41.0014 61.4555C41.5876 61.4426 42.0443 61.8975 42.0388 62.4855C42.0351 63.0717 41.5654 63.5266 40.9866 63.5044ZM44.6424 63.5007C44.047 63.5118 43.5995 63.0532 43.6161 62.4448C43.6309 61.8753 44.071 61.4518 44.6406 61.4592C45.2064 61.4666 45.641 61.9085 45.6391 62.4762C45.6354 63.0421 45.2009 63.4896 44.6424 63.5007ZM48.2539 63.5025C47.6899 63.5173 47.1832 63.0347 47.1776 62.4799C47.1739 61.9492 47.6362 61.4777 48.1799 61.4574C48.7605 61.4352 49.2432 61.8993 49.2413 62.4781C49.2395 63.0273 48.7957 63.4877 48.2539 63.5025ZM61.2165 62.2285C61.2017 62.3708 61.2165 62.5169 61.2147 62.6593C61.2073 63.6024 61.1111 63.7059 60.194 63.7115C59.2823 63.717 58.3707 63.7133 57.459 63.7133C56.4753 63.7115 55.4915 63.6985 54.5077 63.717C53.929 63.7281 53.6608 63.4711 53.6682 62.9034C53.6701 62.8313 53.6664 62.7592 53.6664 62.687C53.6442 61.2706 53.6997 61.2114 55.0884 61.2133C56.8155 61.217 58.5426 61.2391 60.2698 61.2225C60.9891 61.2188 61.2868 61.5276 61.2165 62.2285Z" fill="#001E42"/>
<path d="M46.4489 36.5156C46.7596 36.695 47.0628 36.9816 47.3938 37.0186C48.0891 37.0962 49.3761 37.0611 50.0788 37.0371C50.162 37.0334 50.2175 37.0389 50.2508 37.05H50.114V41.1663C47.1331 41.1663 44.1504 41.1663 41.1695 41.1663C39.8677 41.1663 39.5774 41.4455 39.5774 42.7103C39.5755 47.3277 39.5755 51.9451 39.5774 56.5625C39.5774 57.7348 39.8973 58.0566 41.0863 58.0566C47.4123 58.0603 53.7383 58.0584 60.0644 58.0529C61.3384 58.0511 61.6232 57.7515 61.6251 56.4663C61.6269 51.897 61.625 47.3277 61.6269 42.7584C61.6269 41.4455 61.3477 41.1663 60.0052 41.1644C57.4182 41.1626 54.833 41.1644 52.2461 41.1644V37.0482C52.2461 37.0463 52.2461 37.0445 52.2461 37.0426C53.2945 37.0426 54.2931 37.0426 55.2935 37.0426C56.1737 37.0408 56.4844 36.7356 56.4917 35.8554C56.4973 35.1934 56.5065 34.5314 56.4881 33.8694C56.4714 33.2463 56.1644 32.8875 55.5468 32.882C52.7916 32.8616 50.0344 32.8561 47.2792 32.8968C46.9926 32.9005 46.7133 33.2574 46.4267 33.446C46.2381 33.5699 46.0439 33.7807 45.8498 33.7825C43.0742 33.8066 40.2986 33.8084 37.5211 33.7899C37.3103 33.7881 36.9941 33.6531 36.909 33.4867C36.6501 32.9855 36.2526 32.8579 35.7496 32.8616C34.8731 32.8672 33.9966 32.8357 33.1219 32.8709C32.4692 32.8968 32.5357 32.4936 32.5339 32.1127H32.5653V26.4986H46.3509V26.4912C46.4563 26.4949 46.5617 26.4986 46.6671 26.4986C51.0811 26.4986 54.6611 22.9205 54.6611 18.5047C54.6611 14.9986 52.4032 12.0215 49.2633 10.9434C49.6276 10.0299 49.8292 9.0332 49.8292 7.99027C49.8255 3.57815 46.2473 0 41.8315 0C39.1927 0 36.8517 1.27963 35.3964 3.25269C34.3794 2.78485 33.2477 2.52042 32.0549 2.52042C30.5035 2.52042 29.0556 2.96422 27.8296 3.72978C26.7071 3.1288 25.4238 2.7867 24.061 2.7867C19.7339 2.7867 16.2112 6.22616 16.0744 10.5218C11.7806 10.6586 8.33932 14.1813 8.33932 18.5084C8.33932 22.9223 11.9175 26.5023 16.3333 26.5023H30.4295V31.9777C30.4073 32.024 30.3944 32.0702 30.3944 32.1164C30.4073 32.5158 30.4332 32.9023 29.8304 32.8727C29.1906 32.8431 28.5489 32.8653 27.9073 32.869C27.4246 32.8709 27.0474 33.0077 26.8255 33.5033C26.7571 33.6568 26.4667 33.7955 26.2781 33.7973C23.2233 33.8158 20.1685 33.8158 17.1136 33.7955C16.9139 33.7936 16.7142 33.5791 16.5164 33.4608C16.1909 33.2666 15.8691 32.9042 15.54 32.8986C12.8494 32.8524 10.1571 32.8709 7.46466 32.8764C6.84519 32.8783 6.50124 33.2148 6.4809 33.8214C6.45686 34.5888 6.45316 35.3599 6.4883 36.1273C6.51789 36.7578 6.84519 37.0352 7.48685 37.0445C8.3837 37.0556 9.86674 37.0648 10.7617 37.0426C10.8449 37.0408 10.9004 37.0445 10.9319 37.0556H10.7617V41.1718C8.17289 41.1718 5.58405 41.1718 2.99521 41.1718C1.6934 41.1718 1.40308 41.451 1.40308 42.7159C1.40493 47.3314 1.40493 51.9488 1.40862 56.5662C1.40862 57.7385 1.72853 58.0603 2.91755 58.0603C9.24356 58.064 15.5696 58.064 21.8956 58.0584C23.1697 58.0566 23.4544 57.757 23.4563 56.4719C23.4581 51.9026 23.4563 47.3332 23.4581 42.7639C23.4581 41.451 23.1789 41.1718 21.8364 41.17C18.8574 41.1681 15.8784 41.17 12.8994 41.17V37.0537C13.6039 37.0352 14.878 37.087 15.577 37.0241C15.8765 36.9964 16.2852 36.8263 16.4183 36.5914C16.6403 36.2012 16.8991 36.1162 17.2912 36.118C20.2387 36.1254 23.1882 36.1254 26.1357 36.118C26.5056 36.1162 26.7441 36.1901 26.9457 36.5692C27.0733 36.8078 27.4819 37.0241 27.7686 37.0278C30.5035 37.0611 33.2384 37.0611 35.9715 37.026C36.2544 37.0223 36.652 36.7948 36.7888 36.5544C37.0015 36.1827 37.253 36.118 37.6173 36.1199C40.3503 36.1291 43.0853 36.1217 45.8183 36.1513C46.0291 36.1495 46.2362 36.3936 46.4489 36.5156ZM57.6604 43.3298C59.1583 43.3335 59.6723 43.8346 59.6742 45.3047C59.6797 48.1913 59.6816 51.076 59.676 53.9625C59.6742 55.3864 59.1342 55.9319 57.7141 55.9338C52.9284 55.9393 48.1409 55.9393 43.3552 55.9338C42.0996 55.9319 41.5615 55.3975 41.556 54.1253C41.5449 51.0945 41.5449 48.0655 41.5578 45.0347C41.5634 43.8698 42.0701 43.3501 43.2295 43.3409C45.6833 43.3224 48.1353 43.3353 50.5892 43.3353C50.5892 43.3335 50.5892 43.3298 50.5892 43.3279C52.9469 43.3279 55.3046 43.3242 57.6604 43.3298ZM19.4935 43.3298C20.9914 43.3335 21.5054 43.8346 21.5073 45.3047C21.5128 48.1913 21.5147 51.076 21.5091 53.9625C21.5073 55.3864 20.9673 55.9319 19.5471 55.9338C14.7615 55.9393 9.97399 55.9393 5.18833 55.9338C3.93274 55.9319 3.39463 55.3975 3.38909 54.1253C3.37799 51.0945 3.37799 48.0655 3.39094 45.0347C3.39648 43.8698 3.90316 43.3501 5.06259 43.3409C7.51644 43.3224 9.96844 43.3353 12.4223 43.3353C12.4223 43.3335 12.4223 43.3298 12.4223 43.3279C14.7781 43.3279 17.1358 43.3242 19.4935 43.3298Z" fill="#001E42"/>
</svg>
